# xmcd CD database file
#
# Track frame offsets:
#	182
#	17652
#	38792
#
# Disc length: 740 seconds
#
# Revision: 0
# Processed by: cddbd v1.4PL0 Copyright (c) Steve Scherf et al.
# Submitted via: CDex 1.50Beta6
#
DISCID=1902e203
DTITLE=Marla Glen - The Cost Of Freedom
DYEAR=1993
DGENRE=Blues
TTITLE0=The Cost Of Freedom
TTITLE1=Personal
TTITLE2=You Hurt Me
EXTD=YEAR: 1993
EXTT0=
EXTT1=
EXTT2=
PLAYORDER=
